<?xml version="1.0" encoding="utf-8"?>
<!-- Generator: Adobe Illustrator 24.1.2, SVG Export Plug-In . SVG Version: 6.00 Build 0)  -->
<svg version="1.1" id="Layer_1" xmlns="http://www.w3.org/2000/svg" xmlns:xlink="http://www.w3.org/1999/xlink" x="0px" y="0px"
	 viewBox="0 0 850.39 566.93" style="enable-background:new 0 0 850.39 566.93;" xml:space="preserve">
<style type="text/css">
	.st0{fill:#FFFFFF;}
</style>
<polygon class="st0" points="291.19,54.69 499.1,414.79 529.16,414.79 291.19,2.62 53.23,414.79 83.29,414.79 "/>
<polygon class="st0" points="559.13,54.97 767.04,415.07 797.1,415.07 559.13,2.9 321.16,415.07 351.23,415.07 "/>
<polygon class="st0" points="292.11,415.07 424.85,185.16 557.59,415.07 587.65,415.07 424.85,133.09 262.05,415.07 "/>
<g>
	<path class="st0" d="M76.09,563.27l48.87-99.73h10.3l49.41,99.73h-13.46l-13.55-26.83h-55.11l-13.19,26.83H76.09z M108.25,524.79
		h43.9l-22.04-44.17L108.25,524.79z"/>
	<path class="st0" d="M210.24,529.58v33.7h-12.11v-76.97h53.12c7.89,0,14.06,1.9,18.52,5.69s6.68,9.06,6.68,15.81
		c0,5.48-1.76,10.22-5.28,14.23s-8.12,6.46-13.78,7.36l21.41,33.88h-13.1l-21.86-33.7H210.24z M210.24,518.28h41.01
		c4.16,0,7.33-0.9,9.53-2.71c2.2-1.81,3.3-4.4,3.3-7.77c0-3.37-1.1-5.95-3.3-7.72c-2.2-1.78-5.38-2.66-9.53-2.66h-41.01V518.28z"/>
	<path class="st0" d="M379.89,544.39c-4.4,6.93-10.16,12.21-17.3,15.85c-7.14,3.64-15.25,5.47-24.35,5.47
		c-13.55,0-24.71-3.84-33.47-11.52c-8.76-7.68-13.14-17.42-13.14-29.22c0-11.8,4.38-21.58,13.14-29.31
		c8.76-7.74,19.92-11.61,33.47-11.61c8.43,0,16.08,1.58,22.95,4.74c6.87,3.16,12.41,7.63,16.62,13.41l-9.58,6.68
		c-3.19-4.4-7.39-7.78-12.6-10.16c-5.21-2.38-11.01-3.57-17.39-3.57c-9.88,0-18.05,2.82-24.53,8.45
		c-6.47,5.63-9.71,12.69-9.71,21.18c0,8.49,3.25,15.55,9.76,21.18s14.66,8.45,24.48,8.45c6.87,0,12.92-1.36,18.16-4.07
		s9.85-6.93,13.82-12.65L379.89,544.39z"/>
	<path class="st0" d="M412.23,527.41v35.86h-12.11v-77.15h12.11v29.99h54.21v-29.99h12.01v77.15h-12.01v-35.86H412.23z"/>
	<path class="st0" d="M522.98,563.27l-32.52-99.73h12.2l24.75,76.97l25.38-76.97h11.11l25.29,76.79l24.84-76.79h11.83l-32.43,99.73
		h-9.03l-26.29-80.31l-26.02,80.31H522.98z"/>
	<path class="st0" d="M616.57,563.27l39.21-77.15h7.59l39.57,77.15h-12.92l-10.03-19.6h-40.74l-9.94,19.6H616.57z M644.49,533.46
		h30.17l-15-29.54L644.49,533.46z"/>
	<path class="st0" d="M727.42,563.27v-39.39l-35.14-37.76h15.54l25.57,27.37l25.11-27.37h16.08l-35.32,37.58v39.57H727.42z"/>
</g>
</svg>
